<?xml version="1.0" standalone="no"?> <!DOCTYPE svg PUBLIC "-//W3C//DTD SVG 1.0//EN" "http://www.w3.org/TR/2001/REC-SVG-20010904/DTD/svg10.dtd" > <svg xmlns="http://www.w3.org/2000/svg" width="100%" height="100%">
<defs >
<font horiz-adv-x="1221" ><font-face
    font-family="KFGQPC Uthman Taha Naskh"
    units-per-em="2048"
    panose-1="2 0 0 0 0 0 0 0 0 0"
    ascent="2300"
    descent="-1150"
    alphabetic="0" />
<missing-glyph horiz-adv-x="0" />
<glyph unicode=" " glyph-name="space" horiz-adv-x="401" />
<glyph unicode="!" glyph-name="exclam" horiz-adv-x="382" d="M183 968Q209 968 226 956T252 925T265 881T269 833T267 785T263 745Q258 714 254 690T246 643T237 601T228 557Q224 533 221 505T214 441T208 358T204 250H162Q160 311 158 357T152 440T145 505T138
557Q133 581 129 601T120 643T112 689T104 745Q102 762 100 785T98 832T101 881T114 924T139 956T183 968ZM186 35Q154 35 132 57T110 112Q110 145 132 167T186 189Q201 189 215 183T240 167T257 142T263 112Q263 96 257 82T241 58T216 41T186 35Z" />
<glyph unicode="&quot;" glyph-name="quotedbl" horiz-adv-x="423" d="M120 1136Q140 1136 150 1122T163 1090T165 1051T162 1018Q152 949 145 888T136 757H104Q101 826 94 887T78 1018Q77 1031 75 1051T76 1089T89 1122T120 1136ZM315 1136Q337 1136 346 1122T359
1090T361 1051T358 1018Q349 949 341 888T332 757H299Q298 826 290 887T273 1018Q271 1031 270 1051T272 1089T285 1122T315 1136Z" />
<glyph unicode="#" glyph-name="numbersign" horiz-adv-x="1163" d="M90 412V497H283L354 822H90V907H371L445 1248H527L456 907H801L873 1248H956L885 907H1065V822H867L798 497H1065V412H779L706 71H623L695 412H349L277 71H194L266 412H90ZM368 497H713L783
822H439L368 497Z" />
<glyph unicode="$" glyph-name="dollar" horiz-adv-x="819" d="M444 1135V1241H507V1120Q543 1109 577 1092T638 1054T679 1009T695 959Q695 936 677 919T635 901Q614 901 598 913T568 943T540 984T507 1028V660Q553 633 594 602T668 536T718 459T737 368Q737
316 719 272T669 192T596 130T507 90V-70H444V77Q434 75 426 75T407 75Q388 75 369 76T330 82V-70H269V99Q226 112 189 132T125 177T81 230T65 285Q65 307 81 322T121 337Q145 337 160 320T190 276T222 220T269 166V638Q230 663 197 690T138 747T99 810T84 882Q84
927 99 963T139 1030T198 1082T269 1118V1241H330V1135Q344 1137 359 1139T390 1139Q403 1139 416 1138T444 1135ZM330 1084V766Q357 749 385 733T444 699V1074Q417 1086 377 1086Q365 1086 353 1086T330 1084ZM507 485V153Q556 177 589 220T622 326Q622 371 590
409T507 485ZM444 527Q417 544 388 562T330 598V133Q355 124 394 124Q407 124 419 126T444 130V527ZM269 1062Q230 1041 211 1008T192 934Q192 898 212 869T269 811V1062Z" />
<glyph unicode="%" glyph-name="percent" horiz-adv-x="1260" d="M222 -26L953 1278H1077L345 -26H222ZM351 1128Q351 1104 360 1082T385 1044T423 1019T469 1010Q494 1010 515 1019T553 1044T578 1082T587 1128Q587 1153 578 1174T553 1211T516 1236T469 1246Q445
1246 423 1237T386 1212T361 1175T351 1128ZM711 116Q711 92 720 70T745 32T783 7T829 -3Q853 -3 875 6T912 32T937 70T947 116Q947 140 938 162T913 199T875 224T829 234Q805 234 783 225T745 200T720 162T711 116Z" />
<glyph unicode="&amp;" glyph-name="ampersand" horiz-adv-x="1269" d="M383 657Q342 643 312 618T261 559T232 486T223 404Q223 351 243 307T299 233T382 188T483 179Q517 183 551 202T615 244T666 290T698 324Q664 374 632 417T562 500T482 578T383 657ZM1159
159Q1134 140 1098 116T1022 76T939 60T859 89Q826 116 794 163T727 279Q693 236 657 200T581 135T501 89T415 66Q343 60 280 79T170 137T94 231T66 354Q66 413 84 468T135 570T217 651T326 702Q277 743 254 791T228 888Q225 932 238 972T280 1045T351 1099T448
1127Q496 1133 538 1121T612 1083T662 1020T681 936Q681 898 667 866T630 807T575 758T508 722Q541 700 575 668T643 598T711 516T777 427Q833 504 883 586T977 751Q984 764 980 771T962 781T930 784T890 784V828H1186V784Q1161 784 1136 783T1090 778T1053 768T1031
751Q1013 712 990 667T938 573T877 476T810 380Q822 363 839 331T879 264T927 198T982 151Q1003 140 1023 142T1063 153T1102 174T1139 197L1159 159ZM457 1074Q434 1069 413 1053T377 1013T352 959T343 896Q343 864 352 838T376 793T413 766T457 762Q480 765 500
781T536 821T561 876T570 940Q570 972 561 999T537 1044T501 1070T457 1074Z" />
<glyph unicode="&apos;" glyph-name="quotesingle" horiz-adv-x="308" d="M156 1219Q196 1218 215 1200T240 1157T243 1105T236 1061Q217 974 203 887Q196 843 190 800T181 713H130Q128 757 122 800T108 887L75 1061Q71 1079 68 1105T71 1156T96 1200T156 1219Z" />
<glyph unicode="(" glyph-name="parenleft" horiz-adv-x="692" d="M517 -345Q409 -251 330 -148T198 65T119 291T91 526Q89 648 115 767T194 1001T328 1221T517 1423L569 1383Q410 1184 337 969T266 522Q269 300 342 92T569 -310L517 -345Z" />
<glyph unicode=")" glyph-name="parenright" horiz-adv-x="692" d="M123 -310Q277 -116 350 92T426 522Q429 753 356 968T123 1383L175 1423Q283 1327 363 1221T497 1001T576 768T601 526Q599 407 573 291T495 65T363 -148T175 -345L123 -310Z" />
<glyph unicode="*" glyph-name="asterisk" horiz-adv-x="578" d="M286 904Q301 904 310 913T320 936Q320 950 311 960T286 970Q273 970 264 960T254 936Q254 923 263 914T286 904ZM303 1002Q307 1002 313 999T324 994Q344 1018 363 1048T400 1107Q404 1113 411
1121T428 1134T450 1138T474 1124Q486 1112 487 1101T484 1079T471 1061T457 1049Q430 1032 400 1014T344 973Q349 968 350 963T354 951Q386 955 421 962T486 977Q494 978 505 978T527 976T545 963T553 936Q553 919 545 910T527 898T506 894T486 895Q456 903 421
910T354 922Q352 915 351 910T344 900Q370 878 400 860T457 825Q463 819 471 812T484 795T488 774T474 750Q462 737 450 736T428 739T411 752T400 767Q383 794 364 823T324 880Q319 876 313 874T303 870Q304 837 312 803T327 736Q329 729 329 718T326 697T313 680T286
672Q269 672 261 679T249 697T245 718T247 736Q254 768 261 802T273 870Q262 872 249 880Q229 853 210 824T173 767Q169 760 162 752T145 739T124 735T100 750Q88 762 87 773T89 794T102 811T117 825Q143 841 173 859T229 900Q223 909 220 922Q188 918 153 911T87
895Q80 894 69 894T48 897T30 910T23 936Q23 954 30 963T47 975T69 979T87 977Q117 970 152 963T220 951Q222 958 224 963T229 973Q204 995 174 1013T117 1049Q111 1053 103 1060T90 1078T86 1100T100 1124Q112 1136 123 1137T145 1135T162 1122T173 1107Q191 1079
210 1049T249 994Q256 996 261 999T273 1002Q269 1036 262 1070T247 1137Q246 1144 246 1155T248 1176T260 1194T286 1201Q304 1201 313 1194T326 1177T330 1155T327 1137Q320 1105 312 1071T303 1002Z" />
<glyph unicode="+" glyph-name="plus" horiz-adv-x="781" d="M73 455H343V723H428V455H697V368H428V99H343V368H73V455Z" />
<glyph unicode="," glyph-name="comma" horiz-adv-x="372" d="M217 43Q193 31 168 33T123 49Q104 62 97 81T91 121T105 160T133 190Q161 206 191 201T244 174Q265 152 275 124T287 64T282 2T265 -55Q246 -94 218 -124T151 -174Q134 -184 119 -187T99 -181Q94 -175
101 -168T119 -151Q141 -137 162 -116T199 -68Q213 -42 219 -14T217 43Z" />
<glyph unicode="-" glyph-name="hyphen" horiz-adv-x="804" d="M720 375H82V462H720V375Z" />
<glyph unicode="." glyph-name="period" horiz-adv-x="400" d="M294 136Q294 84 268 62T188 40Q136 40 109 62T82 136Q82 187 109 208T188 229Q242 229 268 208T294 136Z" />
<glyph unicode="/" glyph-name="uni002F" horiz-adv-x="554" d="M42 -338L433 1160H499L107 -338H42Z" />
<glyph unicode="0" glyph-name="uni0030" horiz-adv-x="800" d="M725 567Q725 477 720 378T684 195T584 58T388 5Q260 6 194 60T99 197T68 378T65 567Q65 657 67 755T98 937T193 1074T388 1129Q515 1130 583 1076T683 939T720 757T725 567ZM614 567Q614 630 611
706T588 850T522 962T391 1006Q305 1005 261 959T199 845T179 702T178 567Q178 508 179 433T198 290T261 176T391 128Q476 127 521 172T587 284T611 428T614 567Z" />
<glyph unicode="1" glyph-name="uni0031" horiz-adv-x="547" d="M307 879Q256 841 201 809T84 757L75 882Q119 901 160 930T237 992T305 1060T361 1126H444Q444 845 444 563T444 0Q410 0 376 0T307 0Q307 220 307 439T307 879Z" />
<glyph unicode="2" glyph-name="uni0032" horiz-adv-x="906" d="M103 129Q103 131 121 149T170 197T240 263T320 339T403 417T478 488T535 543T565 575Q627 651 643 732T632 875Q604 936 557 962T455 988Q418 986 382 973T313 937T256 880T218 807Q194 818 170
831T121 855Q134 920 167 970T245 1055T345 1107T456 1127Q515 1129 572 1111T673 1055T746 960T778 825Q780 768 764 712T718 601T650 495T569 398Q527 351 484 311T404 237T338 180T295 141H814L778 1H103V129Z" />
<glyph unicode="3" glyph-name="uni0033" horiz-adv-x="793" d="M705 899Q715 852 711 804T687 712T635 631T555 570Q603 545 636 508T687 428T711 338T709 244Q698 181 671 135T604 60T517 16T418 2Q367 3 317 17T221 59T140 128T82 221L192 293Q208 251 235
222T295 176T364 152T435 150Q470 154 499 169T549 208T577 267T576 343Q567 378 544 411T485 468T399 504T288 507L287 633Q332 625 379 631T468 657T538 712T579 797Q587 839 580 872T554 929T508 968T449 988Q417 992 384 986T319 963T263 918T220 849L105 917Q127
968 161 1007T238 1074T328 1115T423 1130Q470 1130 515 1117T598 1075T663 1003T705 899Z" />
<glyph unicode="4" glyph-name="uni0034" horiz-adv-x="953" d="M831 278H703V0H571V278H80L99 405L589 1126H703V414H864L831 278ZM571 907L240 414H571V907Z" />
<glyph unicode="5" glyph-name="uni0035" horiz-adv-x="876" d="M238 545L113 548L208 1122H761L720 981H306L255 693Q300 724 348 738T443 751Q515 750 579 720T692 637T768 515T795 366Q793 287 763 220T683 103T568 25T430 -4Q335 -5 246 46T100 215L228 273Q261
210 317 179T433 148Q480 148 520 164T590 210T636 279T653 366Q651 476 594 539T433 604Q384 604 333 589T238 545Z" />
<glyph unicode="6" glyph-name="uni0036" horiz-adv-x="880" d="M217 366Q219 320 236 282T282 215T349 171T430 155Q526 155 584 215T647 366Q650 428 632 471T582 541T510 579T427 591Q327 589 270 530T217 366ZM223 637Q246 669 276 688T337 717T392 730T430
734Q521 736 588 705T698 621T762 499T779 356Q777 288 754 225T688 111T580 31T430 1Q311 1 242 55T137 194T92 382T86 583Q89 696 112 795T180 967T297 1083T469 1127Q590 1129 658 1075T773 917L670 849Q643 921 587 954T477 988Q404 988 355 955T277 870T235
756T223 637Z" />
<glyph unicode="7" glyph-name="uni0037" horiz-adv-x="884" d="M127 1126H777L763 987Q707 857 638 733T508 486Q447 364 405 243T357 0H209Q214 127 259 260T368 522Q430 650 497 766T612 978H93L127 1126Z" />
<glyph unicode="8" glyph-name="uni0038" horiz-adv-x="818" d="M573 812Q576 844 568 878T538 940T481 987T393 1005Q342 1005 308 987T253 941T226 879T221 812Q229 721 280 676T394 630Q426 630 456 641T511 675T552 732T573 812ZM393 1126Q460 1126 516 1101T612
1033T674 931T694 807Q693 774 687 740T665 675T625 618T559 572Q652 523 691 440T720 272Q713 206 682 155T606 69T504 17T389 0Q331 1 275 20T175 75T101 163T68 282Q63 366 102 446T231 572Q149 617 122 681T95 817Q96 881 118 937T180 1036T274 1102T393 1126ZM393
125Q435 125 471 141T534 186T573 252T584 332Q581 377 564 411T521 468T463 502T397 514Q364 515 333 504T275 470T232 413T210 332Q207 301 216 265T247 198T306 146T393 125Z" />
<glyph unicode="9" glyph-name="uni0039" horiz-adv-x="880" d="M653 772Q650 818 633 855T586 920T519 962T438 977Q342 977 292 920T238 772Q235 710 251 667T297 597T365 558T445 547Q545 549 601 608T653 772ZM650 501Q627 469 597 450T537 421T482 408T444
405Q353 402 288 433T182 517T122 639T105 782Q107 850 127 912T187 1023T289 1101T436 1130Q555 1130 625 1077T732 940T778 754T786 555Q784 442 764 342T698 168T579 49T399 4Q278 3 205 57T84 214L186 282Q201 246 224 220T276 177T333 152T390 144Q470 144
521 178T602 265T642 381T650 501Z" />
<glyph unicode=":" glyph-name="colon" horiz-adv-x="438" d="M218 692Q236 692 252 685T280 667T299 639T306 605Q306 587 299 572T281 544T253 525T218 518Q200 518 184 525T157 544T138 571T131 605Q131 623 138 639T156 666T184 685T218 692ZM218 207Q236
207 252 201T280 182T299 155T306 121Q306 103 299 87T281 60T253 41T218 34Q200 34 184 41T157 59T138 87T131 121Q131 139 138 154T156 182T184 200T218 207Z" />
<glyph unicode=";" glyph-name="semicolon" horiz-adv-x="452" d="M227 827Q247 827 264 820T294 800T314 770T321 734Q321 715 314 698T294 668T264 648T227 641Q207 641 190 648T161 668T141 698T133 734Q133 753 140 770T160 800T190 820T227 827ZM256 114Q269
81 266 48T247 -18Q233 -48 210 -76T163 -124Q152 -135 146 -144T144 -159Q150 -169 167 -164T204 -146Q245 -119 274 -80T321 5Q332 37 335 73T334 145T314 213T273 268Q245 292 209 293T141 275Q121 260 111 237T100 191T111 145T146 111Q170 96 200 96T256 114Z"
/>
<glyph unicode="&lt;" glyph-name="less" horiz-adv-x="1161" d="M120 731L1009 1116V1004L212 657L1009 311V199L120 582V731Z" />
<glyph unicode="=" glyph-name="equal" horiz-adv-x="804" d="M722 281H83V370H722V281ZM722 458H83V545H722V458Z" />
<glyph unicode="&gt;" glyph-name="greater" horiz-adv-x="1161" d="M1009 582L120 199V311L917 657L120 1004V1116L1009 731V582Z" />
<glyph unicode="[" glyph-name="uni005B" horiz-adv-x="576" d="M79 -173V1141H473V1044H221V-76H473V-173H79Z" />
<glyph unicode="\" glyph-name="backslash" horiz-adv-x="554" d="M434 -338L42 1160H108L499 -338H434Z" />
<glyph unicode="]" glyph-name="uni005D" horiz-adv-x="576" d="M473 1140V-173H80V-77H332V1043H79V1140H473Z" />
<glyph unicode="{" glyph-name="uni007B" horiz-adv-x="672" d="M588 -376Q535 -375 487 -359T398 -313T326 -246T276 -162T249 -69T252 29Q259 68 265 108T271 187T263 259T234 320T178 365T88 388V444Q142 450 177 467T234 512T263 573T271 645T265 723T252
803Q242 852 249 900T275 994T326 1077T398 1145T487 1190T588 1208V1161Q530 1149 491 1129T428 1083T393 1024T380 956T381 881T392 803Q403 741 395 680T359 566T288 474T184 416Q243 398 287 359T359 266T394 152T392 29Q385 -11 381 -49T379 -123T393 -191T428
-250T491 -297T588 -329V-376Z" />
<glyph unicode="}" glyph-name="uni007D" horiz-adv-x="677" d="M88 -329Q145 -317 184 -297T248 -251T283 -192T296 -124T295 -50T284 29Q273 90 281 151T316 266T387 358T492 416Q432 434 388 473T317 565T282 679T284 803Q291 842 295 881T297 955T283 1023T248
1082T185 1129T88 1161V1208Q167 1207 235 1171T349 1078T417 948T424 803Q417 764 411 724T405 645T413 573T441 512T497 468T588 444V388Q534 383 498 365T442 320T413 259T405 187T411 109T424 29Q438 -44 417 -116T350 -245T235 -339T88 -376V-329Z" />
</font>
</defs>
</svg>
